<svg width="56" height="57" viewBox="0 0 56 57" fill="none" xmlns="http://www.w3.org/2000/svg">
<rect y="0.909912" width="56" height="56" rx="28" fill="#3D3F54"/>
<path d="M26.4962 20.9099C19.6247 22.2432 19 28.9099 19 28.9099M19 28.9099V33.1618C19 33.857 19 34.2046 19.0574 34.4937C19.2937 35.685 20.2249 36.6162 21.4162 36.8526C21.7053 36.9099 22.0529 36.9099 22.7481 36.9099V36.9099C23.4434 36.9099 23.791 36.9099 24.0801 36.8526C25.2713 36.6162 26.2025 35.685 26.4389 34.4937C26.4962 34.2046 26.4962 33.857 26.4962 33.1618V32.9099C26.4962 31.9799 26.4962 31.515 26.394 31.1335C26.1166 30.0982 25.308 29.2895 24.2727 29.0121C23.8912 28.9099 23.4262 28.9099 22.4962 28.9099H19Z" stroke="white" stroke-width="1.5"/>
<path d="M37 20.9099C30.1284 22.2432 29.5038 28.9099 29.5038 28.9099M29.5038 28.9099V33.1618C29.5038 33.857 29.5038 34.2046 29.5611 34.4937C29.7975 35.685 30.7287 36.6162 31.9199 36.8526C32.209 36.9099 32.5566 36.9099 33.2519 36.9099V36.9099C33.9471 36.9099 34.2947 36.9099 34.5838 36.8526C35.7751 36.6162 36.7063 35.685 36.9426 34.4937C37 34.2046 37 33.857 37 33.1618V32.9099C37 31.9799 37 31.515 36.8978 31.1335C36.6204 30.0982 35.8117 29.2895 34.7765 29.0121C34.395 28.9099 33.93 28.9099 33 28.9099H29.5038Z" stroke="white" stroke-width="1.5"/>
</svg>
